<svg width="197" height="197" viewBox="0 0 197 197" fill="none" xmlns="http://www.w3.org/2000/svg">
<path d="M71.7557 65.5835C71.7557 65.5835 85.7693 49.5235 98.9079 49.5235C107.669 49.5235 146.525 111.768 152.016 137.528C155.905 155.764 119.932 162.862 94.5305 162.862C53.3638 162.862 46.3182 146.652 53.3638 130.436C59.0098 117.439 82.857 89.9045 91.6182 89.9045C107.383 89.9045 112.046 111.18 112.046 118.279C112.046 126.384 107.669 132.462 101.535 132.462C81.1597 132.462 92.958 111.187 92.6186 111.187C87.1988 111.187 79.1468 120.304 76.514 126.383C69.8199 141.844 84.6437 145.633 98.6578 145.633C103.911 145.633 137.919 144.619 125.179 111.18C115.447 85.6364 98.0267 73.6889 91.0166 73.6889C84.0065 73.6889 65.6151 75.7149 21.8221 142.587L0 177.04H197L98.503 21L71.7496 65.5835H71.7557Z" fill="white"/>
<path d="M71.7557 65.5835C71.7557 65.5835 85.7693 49.5235 98.9079 49.5235C107.669 49.5235 146.525 111.768 152.016 137.528C155.905 155.764 119.932 162.862 94.5305 162.862C53.3638 162.862 46.3182 146.652 53.3638 130.436C59.0098 117.439 82.857 89.9045 91.6182 89.9045C107.383 89.9045 112.046 111.18 112.046 118.279C112.046 126.384 107.669 132.462 101.535 132.462C81.1597 132.462 92.958 111.187 92.6186 111.187C87.1988 111.187 79.1468 120.304 76.514 126.383C69.8199 141.844 84.6437 145.633 98.6578 145.633C103.911 145.633 137.919 144.619 125.179 111.18C115.447 85.6364 98.0267 73.6889 91.0166 73.6889C84.0065 73.6889 65.6151 75.7149 21.8221 142.587L0 177.04H197L98.503 21L71.7496 65.5835H71.7557Z" fill="white"/>
</svg>
