<svg width="46" height="36" viewBox="0 0 46 36" fill="none" xmlns="http://www.w3.org/2000/svg">
<g id="Vector">
<path d="M16.5548 10.2859C16.5548 10.2859 19.7879 6.58067 22.8191 6.58067C24.8404 6.58067 33.8048 20.9411 35.0717 26.8842C35.9689 31.0915 27.6696 32.729 21.8092 32.729C12.3116 32.729 10.6861 28.9892 12.3116 25.248C13.6142 22.2495 19.116 15.897 21.1373 15.897C24.7744 15.897 25.8503 20.8056 25.8503 22.4432C25.8503 24.3131 24.8404 25.7155 23.4251 25.7155C18.7244 25.7155 21.4464 20.807 21.3681 20.807C20.1177 20.807 18.26 22.9106 17.6526 24.313C16.1082 27.88 19.5282 28.7541 22.7614 28.7541C23.9733 28.7541 31.8193 28.5203 28.8801 20.8055C26.6349 14.9123 22.6158 12.1559 20.9985 12.1559C19.3812 12.1559 15.1381 12.6233 5.03458 28.0515L0 36H45.45L22.7257 0L16.5534 10.2859H16.5548Z" fill="white"/>
<path d="M16.5548 10.2859C16.5548 10.2859 19.7879 6.58067 22.8191 6.58067C24.8404 6.58067 33.8048 20.9411 35.0717 26.8842C35.9689 31.0915 27.6696 32.729 21.8092 32.729C12.3116 32.729 10.6861 28.9892 12.3116 25.248C13.6142 22.2495 19.116 15.897 21.1373 15.897C24.7744 15.897 25.8503 20.8056 25.8503 22.4432C25.8503 24.3131 24.8404 25.7155 23.4251 25.7155C18.7244 25.7155 21.4464 20.807 21.3681 20.807C20.1177 20.807 18.26 22.9106 17.6526 24.313C16.1082 27.88 19.5282 28.7541 22.7614 28.7541C23.9733 28.7541 31.8193 28.5203 28.8801 20.8055C26.6349 14.9123 22.6158 12.1559 20.9985 12.1559C19.3812 12.1559 15.1381 12.6233 5.03458 28.0515L0 36H45.45L22.7257 0L16.5534 10.2859H16.5548Z" fill="white"/>
</g>
</svg>
