<svg width="20" height="20" viewBox="0 0 20 20" fill="none" xmlns="http://www.w3.org/2000/svg">
<path d="M0.666808 0.587806C1.44712 -0.195591 2.71432 -0.19628 3.49493 0.587806L10.0008 7.12296L16.5076 0.588782C17.2882 -0.195007 18.5543 -0.195112 19.3348 0.588782C20.1126 1.37032 20.1128 2.63536 19.3348 3.41691L12.8221 9.95792L19.4168 16.5829L19.4354 16.6015L19.452 16.621L19.5203 16.6972L19.5369 16.7157L19.5526 16.7343C20.151 17.4715 20.1501 18.536 19.5457 19.2704L19.4168 19.412C18.6846 20.1468 17.5241 20.1931 16.7381 19.5487L16.7186 19.5321L16.7 19.5155L16.6248 19.4472L16.6063 19.4296L16.5887 19.412L9.99982 12.7939L3.41193 19.412L3.39435 19.4296L3.37579 19.4472L3.3006 19.5155L3.28204 19.5321L3.26153 19.5487C2.47591 20.1919 1.31619 20.1474 0.583801 19.412C-0.146267 18.6787 -0.191324 17.5197 0.447082 16.7333L0.46466 16.7118L0.484191 16.6913L0.552551 16.6161L0.567199 16.5995L0.583801 16.5829L7.17755 9.95792L0.666808 3.41691C-0.111082 2.63545 -0.110856 1.36941 0.666808 0.587806ZM17.2967 18.7069L17.3719 18.7753C17.4197 18.8145 17.4706 18.8479 17.5233 18.8769C17.4707 18.848 17.4206 18.8135 17.3729 18.7743L17.2977 18.706L17.2967 18.7069ZM2.62872 18.7743L2.62775 18.7753L2.70294 18.7069L2.70392 18.706L2.62872 18.7743ZM1.19904 18.5985C1.2269 18.6364 1.25774 18.6727 1.29181 18.7069V18.706C1.25793 18.6719 1.22688 18.6361 1.19904 18.5985ZM17.4568 1.11515C17.3991 1.14568 17.3439 1.18279 17.2918 1.2255L17.3729 1.16593C17.4003 1.14771 17.4282 1.13041 17.4568 1.11515ZM1.70489 1.07316C1.67509 1.0853 1.64576 1.09902 1.617 1.11417C1.67486 1.08365 1.73506 1.05926 1.79669 1.04093L1.70489 1.07316Z" fill="#F2F2F2"/>
</svg>
