<?xml version="1.0" encoding="UTF-8" standalone="no"?>
<!-- Created with Inkscape (http://www.inkscape.org/) -->

<svg
   width="4.759254mm"
   height="4.7542319mm"
   viewBox="0 0 4.759254 4.7542319"
   version="1.1"
   id="svg1"
   xml:space="preserve"
   xmlns:inkscape="http://www.inkscape.org/namespaces/inkscape"
   xmlns:sodipodi="http://sodipodi.sourceforge.net/DTD/sodipodi-0.dtd"
   xmlns="http://www.w3.org/2000/svg"
   xmlns:svg="http://www.w3.org/2000/svg"><sodipodi:namedview
     id="namedview1"
     pagecolor="#ffffff"
     bordercolor="#000000"
     borderopacity="0.25"
     inkscape:showpageshadow="2"
     inkscape:pageopacity="0.0"
     inkscape:pagecheckerboard="0"
     inkscape:deskcolor="#d1d1d1"
     inkscape:document-units="mm"><inkscape:page
       x="0"
       y="0"
       width="4.759254"
       height="4.7542319"
       id="page2"
       margin="0"
       bleed="0" /></sodipodi:namedview><defs
     id="defs1" /><g
     inkscape:label="Camada 1"
     inkscape:groupmode="layer"
     id="layer1"
     transform="translate(-119.95044,-140.43588)"><rect
       style="fill:none;fill-opacity:1;stroke:none;stroke-width:0.274117;stroke-opacity:1"
       id="rect4"
       width="4.7542319"
       height="4.7542319"
       x="119.95547"
       y="140.43588"
       rx="0"
       ry="0" /><path
       style="fill:none;fill-opacity:1;stroke:#f2f2f2;stroke-width:0.264583;stroke-opacity:1"
       d="m 120.11533,144.93537 c -0.13041,-0.0394 0.15967,-0.16901 0.17485,-0.46761 0.0175,-0.34425 0.0543,-0.74965 0.32122,-0.96776 0.3187,-0.26043 0.83605,-0.25371 1.07754,0.0122 0.38221,0.42086 0.1817,0.99681 -0.10978,1.24019 -0.36443,0.3043 -0.9172,0.34821 -1.46383,0.18298 z"
       id="path3"
       sodipodi:nodetypes="ssssss"
       inkscape:export-filename="pincel.svg"
       inkscape:export-xdpi="96"
       inkscape:export-ydpi="96" /><path
       style="fill:none;fill-opacity:1;stroke:#f2f2f2;stroke-width:0.264583;stroke-opacity:1"
       d="m 121.44929,143.27478 c 0,0 1.8142,-1.8552 2.55699,-2.64646 0.16137,-0.1719 0.66819,0.31753 0.50892,0.49137 -0.83522,0.91166 -2.5617,2.65116 -2.5617,2.65116 z"
       id="path4"
       sodipodi:nodetypes="csscc"
       inkscape:export-filename="pincel.svg"
       inkscape:export-xdpi="300"
       inkscape:export-ydpi="300" /></g></svg>
